<?xml version="1.0" encoding="UTF-8"?>
<svg id="Calque_1" data-name="Calque 1" xmlns="http://www.w3.org/2000/svg" viewBox="0 0 724.12 746.31">
  <defs>
    <style>
      .cls-1 {
        fill: #d3a39e;
      }

      .cls-1, .cls-2, .cls-3, .cls-4, .cls-5, .cls-6, .cls-7, .cls-8, .cls-9, .cls-10, .cls-11, .cls-12, .cls-13, .cls-14, .cls-15, .cls-16, .cls-17, .cls-18, .cls-19, .cls-20, .cls-21, .cls-22, .cls-23, .cls-24, .cls-25, .cls-26 {
        stroke-width: 0px;
      }

      .cls-27 {
        fill: none;
        stroke: #fff;
        stroke-miterlimit: 10;
        stroke-width: 10px;
      }

      .cls-2 {
        fill: #2c1915;
      }

      .cls-3 {
        fill: #d6a6a3;
      }

      .cls-4 {
        fill: #cfab8a;
      }

      .cls-5 {
        fill: #a17662;
      }

      .cls-6 {
        fill: #bf9d8f;
      }

      .cls-7 {
        opacity: .74;
      }

      .cls-7, .cls-8 {
        fill: #b58367;
      }

      .cls-8, .cls-25 {
        opacity: .49;
      }

      .cls-9 {
        fill: #12100b;
      }

      .cls-10 {
        fill: #622617;
      }

      .cls-28 {
        opacity: .44;
      }

      .cls-29 {
        opacity: .54;
      }

      .cls-11 {
        fill: #b58864;
      }

      .cls-12 {
        opacity: .65;
      }

      .cls-12, .cls-21 {
        fill: #fff;
      }

      .cls-13 {
        fill: #e7c1a5;
      }

      .cls-14 {
        fill: #c0a089;
      }

      .cls-15 {
        fill: #977257;
      }

      .cls-16 {
        fill: #9cc2ae;
      }

      .cls-17 {
        fill: #1a1814;
      }

      .cls-18 {
        fill: #88644e;
      }

      .cls-19 {
        fill: #704e31;
      }

      .cls-20 {
        fill: #f2dfd2;
      }

      .cls-22 {
        fill: #92725a;
      }

      .cls-23 {
        fill: #e0bfa5;
      }

      .cls-24 {
        fill: #474747;
      }

      .cls-25 {
        fill: #8c5a3e;
      }

      .cls-26 {
        fill: #efd5cf;
      }
    </style>
  </defs>
  <path class="cls-27" d="M333.13,389.26c-75.61-119.01-40.42-276.78,78.58-352.38,95.21-60.49,221.42-32.34,281.91,62.87,48.39,76.17,25.87,177.14-50.29,225.53-60.93,38.71-141.71,20.7-180.42-40.24-30.97-48.75-16.56-113.37,32.19-144.34,39-24.78,90.69-13.25,115.47,25.75,19.82,31.2,10.6,72.56-20.6,92.38-24.96,15.86-58.04,8.48-73.9-16.48-12.68-19.97-6.78-46.44,13.18-59.12,15.97-10.15,37.15-5.43,47.3,10.55"/>
  <path class="cls-27" d="M63.08,296.24c138.58-25.99,271.99,65.29,297.98,203.87,20.79,110.86-52.23,217.59-163.09,238.38-88.69,16.63-174.07-41.78-190.7-130.47-13.31-70.95,33.43-139.26,104.38-152.56,56.76-10.64,111.41,26.74,122.05,83.5,8.52,45.41-21.39,89.12-66.8,97.64-36.33,6.81-71.3-17.11-78.11-53.44-5.45-29.06,13.69-57.04,42.75-62.49,23.25-4.36,45.63,10.95,49.99,34.2,3.49,18.6-8.76,36.51-27.36,39.99"/>
  <path class="cls-24" d="M541.82,308.51c0,65.51-25.45,125.06-67.01,169.32-45.13,48.1-109.29,78.14-180.46,78.14-66.76,0-127.33-26.43-171.84-69.4-46.63-45-75.62-108.14-75.62-178.06,0-136.67,110.79-247.47,247.46-247.47s247.47,110.8,247.47,247.47Z"/>
  <g>
    <path class="cls-4" d="M198.95,393.23l-2.85,47.11s-15.34,6.99-16.15,22.48,22.62,61.29,35.8,64.98c13.19,3.69,65.21,7.75,94.75-9.4,29.54-17.14,34.09-24.26,50.18-44.04s28.61-36.3,28.81-38.85-40.68-25.76-61.78-30.51c-21.1-4.75-128.75-11.77-128.75-11.77Z"/>
    <path class="cls-11" d="M347.95,126.35s58.08,24.67,41.86,95.22c-16.22,70.55-25.32,89.14-25.32,89.14,0,0-26.11,51.07-13.45,78.54s15.22,31.43,19.08,31.83c3.86.4,24.83,8.7,20.48,13.45-4.35,4.75-37.39,17.8-43.02,7.12s-2.07-33.63-25.81-29.67c-23.74,3.96-45.49,1.58-61.71-4.35s-6.99,1.98-29.01-2.77c-22.02-4.75-39.28-15.61-39.28-15.61l100.45-46.1,10.56-79.32v-70.62l45.17-66.87Z"/>
    <path class="cls-13" d="M187.19,130.47c-5.89,6.26-19.9,19.89-26.49,58.26,0,0-6.73,12.26-4.35,37.98s.57,43.12-.51,53.41-.68,50.24,6.84,75.56c0,0-1.74,26.9,11.59,30.46,13.33,3.56,49.33,7.12,64.36-7.91s30.46-17.41,37.58-18.2,35.21-26.11,36-36.79-14.64-9.89-8.31-32.44c6.33-22.55,13.05-49.45,6.33-73.19s18.2-46.29,18.2-46.29c0,0,75.56-36-22.55-64.09,0,0-63.82-17.01-109.31,15.16-4.08,2.88-7.13,5.68-9.38,8.07Z"/>
    <path class="cls-3" d="M169.46,322.58s2.11.4,2.77-1.58-.13-6.33,2.51-9.23,9.89-2.64,12.26-2.11.79.92,4.48-.33,13.45-1.12,18.07.73,13.32,4.62,17.41,6.2l4.09,1.58s-21.23-.66-28.75-.53-6.99-.66-12.26-.13-5.93-1.32-11.08,2.37-6.2,4.22-9.49,3.03Z"/>
    <path class="cls-1" d="M172.9,323.1s3.95-4.6,10.41-4.87,12.26.66,18.73,0,19.27.75,24.15,1.01,9.32.22,9.32.22c0,0-10.13,9.31-28.85,9.45-18.73.13-31.12-.94-33.75-5.82Z"/>
    <path class="cls-10" d="M172.65,323.1c.7-.08,1.27-.48,1.83-.88,1.69-1.24,3.28-2.58,5.06-3.72,2.27-1.65,5.29-2.67,8.18-2.81,5.68-.52,11.26-.13,16.8.19,4.17.36,8.28.52,12.42.69,6.96.47,13.87,1.44,20.7,2.85-5.58.1-11.13-.06-16.66-.17-1.5-.01-4.74-.08-6.18-.04-9.02.2-17.96-1.26-26.94-1.18-4.15-.24-7.71,1.68-11.28,3.65-1.23.59-2.5,1.5-3.93,1.43h0Z"/>
    <path class="cls-2" d="M179.2,289.89c-1.01-1.66-3.26-3.96-4.99-4.4s-2.13,1.24-1.29,2.2,5.45,4.3,5.89,4.12.85-1.17.39-1.92Z"/>
    <path class="cls-2" d="M205.2,288.56c0,.26,2.31.07,2.57-.92s-1.71-5.6-7.25-5.08-13.58,1.12-11.8,3.03,3.56,5.54,6.92,4.81,9.56-1.85,9.56-1.85Z"/>
    <path class="cls-7" d="M196.56,259.48c-3.76-1.58-4.83-2.57-4.79,1.78s.04,11.67,3.8,11.47,13.36-2.77,12.22-5.14-11.23-8.11-11.23-8.11Z"/>
    <path class="cls-20" d="M177.08,270.96c-.84-1.85-1.78-1.98-2.37,0s-2.77,3.96,0,3.56,3.36-1.38,2.37-3.56Z"/>
    <path class="cls-14" d="M212.66,227.69c-3.39,7.41-5.5,12.67.89,18.98,4.72,5.43,9.07,11,12.95,17.1,0,0-.15.13-.15.13-2.88-2.23-5.39-4.84-7.69-7.62-3.46-4.21-5.87-9.03-8.89-13.55-2.27-3.24-2.67-7.3-.6-10.77.88-1.65,2-3.11,3.33-4.37l.16.11h0Z"/>
    <path class="cls-21" d="M231.47,231.37s4.04-12.22,14.65-9.37c10.62,2.85,21.58,10.05,21.58,10.05,0,0-24,8.14-36.23-.68Z"/>
    <circle class="cls-16" cx="243.09" cy="228.68" r="6.28"/>
    <circle class="cls-9" cx="243.09" cy="228.21" r="1.56"/>
    <path class="cls-22" d="M233.8,227s-6.22,4.6-6.45,5.48-.35,1.63,1.17,1.68,8.74-.85,8.74-.85c0,0-8.51.45-3.46-6.31Z"/>
    <path class="cls-22" d="M264.27,230.58c-.17-.44,9.09,6.84,9.09,6.84l-11.71-3.99s3.98.61,2.63-2.85Z"/>
    <circle class="cls-21" cx="242.04" cy="226.86" r=".74"/>
    <path class="cls-23" d="M227.32,233.37s33.63-2.08,41.04,1.58l7.42,3.66s-51.33,7.91-48.46-5.24Z"/>
    <path class="cls-23" d="M227.32,233.37s-1.19-10.62,9.49-14.44c9.19-3.29,28.41,6.75,31.15,9.74,3.03,3.31,5.39,8.75,5.39,8.75,0,0-30.27-26.4-46.04-4.05Z"/>
    <path class="cls-21" d="M183.55,231.69s.2,6.08-1.48,6.68,4.27-.81,4.27-.81c0,0,2.95-3.93.53-4.63s-3.31-1.24-3.31-1.24Z"/>
    <path class="cls-21" d="M169.81,231.69c-3.71.49-7.37,9.27-2.18,9.21s13.3-2.29,14.44-2.54,3.21-5.14,1.48-6.68-12.44-.17-13.75,0Z"/>
    <path class="cls-22" d="M165.67,235.55l-3.98,5.35s2,.15,2.69.15,5.24-.82,4.48-.89-3.96-.46-3.16-2.57-.03-2.04-.03-2.04Z"/>
    <path class="cls-19" d="M178.39,214.16c-4.46-2.23-9.4-3.34-14.39-3.27-4.25.06-8.78.4-10.1,1.58-2.51,2.24-3.16,6.46-1.71,9.36s-.4,4.22,5.27,3.16,7.77-1.58,10.81-1.71,7.26-.92,12.4.4,10.07,3.75,10.07,3.75c0,0,1.04-3.22.52-4.36s-4.51-5.26-7.05-6.18c-1.1-.4-3.48-1.54-5.83-2.72Z"/>
    <circle class="cls-16" cx="173.93" cy="234.16" r="6.74"/>
    <circle class="cls-9" cx="173.8" cy="234.49" r="1.56"/>
    <circle class="cls-21" cx="174.89" cy="232.93" r=".74"/>
    <path class="cls-23" d="M161.55,241.68s3.84-25.19,23.32-10.33c.1.07.2.15.31.21l2.81,1.69s-14.34-3.24-16.94-1.06c-10.41,8.72-9.49,9.49-9.49,9.49Z"/>
    <path class="cls-23" d="M161.86,240.9s22.47-3.97,23.72-3.64-9.9,8.66-23.72,3.64Z"/>
    <path class="cls-26" d="M190.75,217.8c2.52,2.79,1.32,7.25.52,10.51-1.92,6.96-6.23,12.79-10.09,18.7-1.86,2.99-3.49,6.12-4.98,9.31-1.46,3.2-2.86,6.41-4.12,9.66-1.7,4.77-3.43,9.82-2.5,14.82.65,3.36,3.56,5.64,5.8,8.02,1.24,1.11,2.48,2.52,4.08,3.08,0,0,.03.2.03.2-1.01-.05-1.76-.56-2.55-.99-2.3-1.39-4.33-3.17-6.3-4.97-10.09-9.98,4.72-29.83,9.97-39.44,2.61-4.57,4.88-9.33,7.17-14.06,1.74-4.17,4.18-8.92,3.35-13.54-.11-.4-.25-.82-.51-1.13l.12-.16h0Z"/>
    <g class="cls-29">
      <path class="cls-14" d="M221.71,232.84c-.32.77-.85,1.29-1.1,1.99-.16.55-.09.82.09,1.41.21.57.53,1.34,1.11,1.85.58.52,1.29.83,2.06,1.08,1.54.48,2.97,1.2,4.3,2.08,1.27.95,2.49,2.03,3.34,3.53l-.13.15c-2.39-.7-4.41-1.73-6.29-3.25-1.29-.92-2.3-2.25-3.68-3.07-.68-.43-1.52-.75-2.16-1.51-.7-.86-.67-2.23.01-3.06.65-.79,1.51-1.12,2.26-1.29l.17.11h0Z"/>
    </g>
    <g class="cls-28">
      <path class="cls-14" d="M295.24,126.26c.49-.12.95,0,1.37.1.43.12.85.27,1.25.44.81.34,1.57.77,2.3,1.25,1.46.95,2.8,2.09,3.9,3.46,1.07,1.39,1.86,2.99,2.53,4.58.68,1.58,1.2,3.28,1.15,5.12-.05.91-.23,1.84-.61,2.7-.38.85-.9,1.63-1.51,2.31-.62.71-1.22,1.26-1.83,1.86-.6.6-1.25,1.15-1.88,1.71-1.3,1.09-2.63,2.15-4.05,3.11-1.43.94-2.84,1.91-4.57,2.45l-.05-.19c.63-.48,1.23-1.12,1.83-1.7l1.79-1.77c1.19-1.19,2.41-2.34,3.63-3.49.62-.56,1.25-1.12,1.89-1.67.63-.54,1.32-1.09,1.86-1.61,1.12-1.07,1.99-2.34,2.41-3.85.39-1.52.12-3.25-.66-4.7-.75-1.48-2.01-2.61-3.18-3.74-1.18-1.12-2.34-2.26-3.59-3.33-.62-.53-1.26-1.06-1.91-1.57-.33-.24-.66-.5-1-.72-.34-.23-.69-.46-1.05-.54l-.04-.2Z"/>
    </g>
    <path class="cls-19" d="M244.65,205.22c-3.07-.3-11.23-3.3-18.22-1.05s-9.32,6.9-5.41,9.1c4.22,2.37,1.45,1.32,9.76,1.98,10.83.86,17.41-1.05,24.13-1.32s7.91-.79,12.79-.4,7.52,2.11,8.97,2.11-8.92-8.18-32.02-10.42Z"/>
    <path class="cls-8" d="M187.86,294.99c-1.19.59-2.87,3.46-2.57,6.13s-.79,4.15,2.08,4.75,4.25,1.09,4.85,0,1.88-4.3,1.88-5.12-1.67-4.57-2.32-5.07-3.31-.69-3.31-.69h-.61Z"/>
    <path class="cls-25" d="M218.38,272.74s7.43,7.43.75,12.68-10.72,5.78-11.34,5.78-.29,3.56,7.06.79,22.12-2.5,3.53-19.25Z"/>
    <path class="cls-15" d="M355.4,255.86s-.73-14.12,0-15.98-.06-4.86,2.21-5.96,16.27-7.21,21.92,4.85,9.1,18.55,5.93,24.33-7.65,20.41-8.87,22.56-10.34,15.75-11.71,17.08-15.59,9.56-15.59,9.56c0,0-1.76-32.33,0-33.94l6.11-22.49Z"/>
    <path class="cls-18" d="M356.21,255.83s13.03,4.45,11.94,11.96,5.24,9.99-1.38,11.87-4.05,1.48-8.21,2.97-8.51.4-8.51.4l-.77-.54,6.93-26.66Z"/>
    <path class="cls-5" d="M355.49,234.66c2.6,3.56,3.72,7.82,3.22,12.09-.37,2.11-1.41,4.15-1.84,6.18-.75,3.07-.64,6.17-.5,9.26-.18,5.17-.76,10.29-3.32,14.95-.8,1.47-1.79,3-3.18,4.09-.5.36-1.2.79-1.94.63l-.07-.6c.51-.71.41-1.69.51-2.55.12-2.87.22-5.95.69-8.79.81-3.96,2.01-8,4.01-11.57,1-1.83,1.9-3.57,1.88-5.65.02-2.97-1.74-5.8-1.49-8.82.05-3.14.29-5.96,1.44-9.12,0,0,.59-.1.59-.1h0Z"/>
    <path class="cls-6" d="M351.03,237.38c7.23-7.86,20.11-11.88,28.42-3,5.35,5.56,8.11,13.26,8.5,20.88.48,5.89-.81,14.72-4.43,18.26.06-.06.17-.22.16-.19.03-.01.05-.07.05-.07-.07.12-.28.55-.47,1.01-3.55,9.33-5.98,24.58-15.28,30.15-6.57,3.23-12.91,7.05-19.57,10.17-2.54,1.07-5.05,2.5-7.87,2.67,0,0-.05-.6-.05-.6,1.15-.25,2.34-.98,3.45-1.65,6.74-4.23,12.98-9.22,19.75-13.42,1.07-.68,2.29-1.26,3.21-2.16,3.58-3.75,5.14-9.11,6.75-13.97,1.7-5.08,2.56-10.39,4.91-15.26.51-.83,1.26-1.4,1.69-2.38,4.12-10.19,2.21-26.25-7.05-33.1-6.82-4.46-15.67-1.02-21.82,3.14,0,0-.36-.48-.36-.48h0Z"/>
    <path class="cls-17" d="M474.81,477.83c-45.13,48.1-109.29,78.14-180.46,78.14-66.76,0-127.33-26.43-171.84-69.4,22.49-14.37,46.37-29.76,54.07-35.15,15.83-11.08,19.81-15.81,19.81-15.81l-.08,1.33-.03.41c-.01.16-.02.33-.03.51-.02.45-.06.99-.1,1.64-.01.26-.03.54-.05.84-.29,4.73-6.07,5.41-6.07,5.41-18.72,11.48.23,36.12,8.86,55.7,8.63,19.59,14.09,18.54,24.53,23.49,13.78,6.52,54.31,1.32,85.73-9.25,18.29-6.15,37.52-25.12,50.85-40.5,9.57-11.05,16.1-20.24,17.08-21.5.14-.17.29-.38.45-.6.01-.01.01-.02.02-.03,1.2-1.65,3.07-4.49,4.76-7.12,1.51-2.36,2.41-5.04,2.66-7.8.11-1.17.11-2.36,0-3.54-.09-.98-.1-1.98.04-2.88.25-1.54.96-2.77,2.49-3.11.55-.13,1.2-.13,1.98,0,7.71,1.31,15.76,8.3,17.61,12.26,1.85,3.95,29.54,13.19,48.79,23.21,10.45,5.44,15.23,10.03,18.93,13.75Z"/>
    <g class="cls-29">
      <path class="cls-14" d="M185.68,332.49c3.58-1.19,7.3-1.65,11.05-1.78,3.72-.04,7.66.1,11.07,1.78-7.31-.17-14.82.73-22.11,0h0Z"/>
    </g>
  </g>
  <ellipse class="cls-12" cx="214.28" cy="126.35" rx="17.43" ry="5.58" transform="translate(-32.54 95.33) rotate(-23.36)"/>
</svg>